<?xml version="1.0" standalone="no"?>
<!DOCTYPE svg PUBLIC "-//W3C//DTD SVG 20010904//EN"
 "http://www.w3.org/TR/2001/REC-SVG-20010904/DTD/svg10.dtd">
<svg version="1.0" xmlns="http://www.w3.org/2000/svg"
 width="840.000000pt" height="458.000000pt" viewBox="0 0 840.000000 458.000000"
 preserveAspectRatio="xMidYMid meet">

<g transform="translate(0.000000,458.000000) scale(0.100000,-0.100000)"
fill="#000000" stroke="none">
<path d="M2615 3802 c-5 -202 -9 -470 -9 -596 l-1 -229 250 -99 c138 -55 254
-103 258 -107 4 -4 -43 -39 -105 -77 -437 -265 -914 -557 -921 -563 -4 -4 -6
-393 -5 -865 l3 -859 162 134 162 134 0 761 1 762 388 254 387 254 0 172 0
173 -160 73 -160 73 0 84 c0 46 4 190 10 319 5 129 10 272 10 318 l0 83 -131
84 -132 83 -7 -366z"/>
<path d="M5658 4076 c-69 -45 -129 -83 -132 -86 -3 -4 1 -184 9 -400 8 -217
11 -398 7 -402 -4 -4 -77 -38 -162 -76 l-155 -70 0 -173 0 -173 240 -158 c132
-86 305 -199 385 -251 l145 -94 3 -764 3 -764 151 -125 c83 -69 157 -129 164
-133 12 -7 14 122 14 852 l0 859 -227 139 c-126 77 -360 220 -521 318 -161 98
-289 182 -285 186 4 4 121 52 258 107 l250 100 -4 454 c-2 249 -7 516 -10 594
l-6 140 -127 -80z"/>
<path d="M3102 3523 l3 -317 86 -33 87 -34 7 -142 c4 -78 8 -182 9 -231 l1
-89 -115 -80 c-63 -44 -206 -143 -317 -219 l-203 -139 1 -287 c1 -158 5 -457
8 -664 l6 -378 97 78 97 77 2 230 c1 127 2 286 3 355 1 69 2 236 4 372 l2 246
313 219 312 218 6 60 c4 33 7 150 8 260 l1 200 -113 50 -112 50 -3 198 -2 197
-90 60 c-49 33 -92 60 -95 60 -3 0 -4 -143 -3 -317z"/>
<path d="M5210 3771 l-85 -58 -5 -198 -5 -198 -114 -51 -113 -51 6 -259 c4
-198 8 -261 18 -267 7 -4 149 -102 316 -219 l302 -211 0 -227 c0 -125 2 -290
4 -367 2 -77 4 -246 5 -375 l2 -235 97 -76 97 -77 6 312 c3 171 5 470 5 665
l-1 354 -318 216 -317 216 5 130 c3 72 8 176 11 232 l6 102 86 34 87 33 3 317
c1 174 -1 317 -5 316 -5 0 -46 -26 -93 -58z"/>
<path d="M4040 3616 c-133 -34 -249 -108 -334 -214 -108 -135 -146 -246 -146
-433 0 -125 18 -209 61 -278 17 -28 18 -36 7 -47 -7 -7 -146 -105 -308 -217
-162 -112 -301 -215 -308 -228 -10 -19 -12 -90 -7 -339 12 -655 16 -765 28
-776 7 -6 179 -107 382 -224 204 -117 454 -262 557 -322 103 -59 197 -108 208
-108 17 0 335 186 1035 604 l170 102 3 541 2 541 -97 64 c-54 35 -202 131
-329 212 l-230 149 38 76 c91 179 89 399 -4 573 -39 73 -159 204 -229 249 -96
61 -169 81 -314 85 -89 2 -147 -1 -185 -10z"/>
</g>
</svg>
